<mxfile host="app.diagrams.net" agent="Mozilla/5.0 (Windows NT 10.0; Win64; x64) AppleWebKit/537.36 (KHTML, like Gecko) Chrome/131.0.0.0 Safari/537.36" version="25.0.1">
  <diagram name="Page-1" id="ATfXu8jkNSImCt0j8Cfg">
    <mxGraphModel dx="1467" dy="1968" grid="1" gridSize="10" guides="1" tooltips="1" connect="1" arrows="1" fold="1" page="1" pageScale="1" pageWidth="850" pageHeight="1100" math="0" shadow="0">
      <root>
        <mxCell id="0" />
        <mxCell id="1" parent="0" />
        <mxCell id="P-7HhU2dx_47wgBdvO1a-7" value="" style="rounded=0;whiteSpace=wrap;html=1;fillColor=none;strokeWidth=5;" vertex="1" parent="1">
          <mxGeometry x="230" y="-40" width="310" height="980" as="geometry" />
        </mxCell>
        <mxCell id="1GnM5Je0mjcqMMnKxtjH-2" value="&lt;b&gt;Authentication&lt;/b&gt;" style="ellipse;whiteSpace=wrap;html=1;" parent="1" vertex="1">
          <mxGeometry x="330" y="110" width="120" height="80" as="geometry" />
        </mxCell>
        <mxCell id="1GnM5Je0mjcqMMnKxtjH-3" value="&lt;b&gt;Token Request&lt;/b&gt;" style="ellipse;whiteSpace=wrap;html=1;" parent="1" vertex="1">
          <mxGeometry x="330" y="230" width="120" height="80" as="geometry" />
        </mxCell>
        <mxCell id="1GnM5Je0mjcqMMnKxtjH-4" value="&lt;b&gt;Vote casting&lt;/b&gt;" style="ellipse;whiteSpace=wrap;html=1;" parent="1" vertex="1">
          <mxGeometry x="330" y="350" width="120" height="80" as="geometry" />
        </mxCell>
        <mxCell id="1GnM5Je0mjcqMMnKxtjH-5" value="&lt;b&gt;Results observing&lt;/b&gt;" style="ellipse;whiteSpace=wrap;html=1;" parent="1" vertex="1">
          <mxGeometry x="330" y="480" width="120" height="80" as="geometry" />
        </mxCell>
        <mxCell id="1GnM5Je0mjcqMMnKxtjH-6" value="&lt;b&gt;Vote proving&lt;/b&gt;" style="ellipse;whiteSpace=wrap;html=1;" parent="1" vertex="1">
          <mxGeometry x="330" y="610" width="120" height="80" as="geometry" />
        </mxCell>
        <mxCell id="1GnM5Je0mjcqMMnKxtjH-7" value="" style="endArrow=none;html=1;rounded=0;entryX=0;entryY=0.5;entryDx=0;entryDy=0;" parent="1" target="1GnM5Je0mjcqMMnKxtjH-2" edge="1">
          <mxGeometry width="50" height="50" relative="1" as="geometry">
            <mxPoint x="70" y="380" as="sourcePoint" />
            <mxPoint x="230" y="300" as="targetPoint" />
          </mxGeometry>
        </mxCell>
        <mxCell id="1GnM5Je0mjcqMMnKxtjH-8" value="" style="endArrow=none;html=1;rounded=0;entryX=0;entryY=0.5;entryDx=0;entryDy=0;" parent="1" target="1GnM5Je0mjcqMMnKxtjH-3" edge="1">
          <mxGeometry width="50" height="50" relative="1" as="geometry">
            <mxPoint x="70" y="380" as="sourcePoint" />
            <mxPoint x="210" y="360" as="targetPoint" />
          </mxGeometry>
        </mxCell>
        <mxCell id="1GnM5Je0mjcqMMnKxtjH-9" value="&lt;b&gt;Registration&lt;/b&gt;" style="ellipse;whiteSpace=wrap;html=1;" parent="1" vertex="1">
          <mxGeometry x="330" y="-10" width="120" height="80" as="geometry" />
        </mxCell>
        <mxCell id="1GnM5Je0mjcqMMnKxtjH-10" value="" style="endArrow=none;html=1;rounded=0;entryX=0;entryY=0.5;entryDx=0;entryDy=0;" parent="1" target="1GnM5Je0mjcqMMnKxtjH-9" edge="1">
          <mxGeometry width="50" height="50" relative="1" as="geometry">
            <mxPoint x="71" y="380" as="sourcePoint" />
            <mxPoint x="180" y="190" as="targetPoint" />
          </mxGeometry>
        </mxCell>
        <mxCell id="1GnM5Je0mjcqMMnKxtjH-11" value="" style="endArrow=none;html=1;rounded=0;entryX=0;entryY=0.5;entryDx=0;entryDy=0;" parent="1" target="1GnM5Je0mjcqMMnKxtjH-4" edge="1">
          <mxGeometry width="50" height="50" relative="1" as="geometry">
            <mxPoint x="71" y="380" as="sourcePoint" />
            <mxPoint x="190" y="460" as="targetPoint" />
          </mxGeometry>
        </mxCell>
        <mxCell id="1GnM5Je0mjcqMMnKxtjH-12" value="" style="endArrow=none;html=1;rounded=0;exitX=0;exitY=0.5;exitDx=0;exitDy=0;" parent="1" source="1GnM5Je0mjcqMMnKxtjH-5" edge="1">
          <mxGeometry width="50" height="50" relative="1" as="geometry">
            <mxPoint x="180" y="570" as="sourcePoint" />
            <mxPoint x="70" y="380" as="targetPoint" />
          </mxGeometry>
        </mxCell>
        <mxCell id="1GnM5Je0mjcqMMnKxtjH-13" value="" style="endArrow=none;html=1;rounded=0;exitX=0;exitY=0.5;exitDx=0;exitDy=0;" parent="1" source="1GnM5Je0mjcqMMnKxtjH-6" edge="1">
          <mxGeometry width="50" height="50" relative="1" as="geometry">
            <mxPoint x="150" y="620" as="sourcePoint" />
            <mxPoint x="71" y="380" as="targetPoint" />
          </mxGeometry>
        </mxCell>
        <mxCell id="P-7HhU2dx_47wgBdvO1a-6" value="&lt;b&gt;&lt;font style=&quot;font-size: 16px;&quot;&gt;Voter&lt;/font&gt;&lt;/b&gt;" style="shape=umlActor;verticalLabelPosition=bottom;verticalAlign=top;html=1;outlineConnect=0;" vertex="1" parent="1">
          <mxGeometry x="22" y="347" width="43" height="68" as="geometry" />
        </mxCell>
        <mxCell id="P-7HhU2dx_47wgBdvO1a-10" value="&lt;b&gt;&lt;font style=&quot;font-size: 21px;&quot;&gt;Voter account services&lt;/font&gt;&lt;/b&gt;" style="text;html=1;align=center;verticalAlign=middle;whiteSpace=wrap;rounded=0;" vertex="1" parent="1">
          <mxGeometry x="230" y="-80" width="310" height="30" as="geometry" />
        </mxCell>
        <mxCell id="P-7HhU2dx_47wgBdvO1a-11" value="&lt;b&gt;&lt;font style=&quot;font-size: 16px;&quot;&gt;SMS service&lt;/font&gt;&lt;/b&gt;" style="rounded=0;whiteSpace=wrap;html=1;" vertex="1" parent="1">
          <mxGeometry x="653" y="-80" width="120" height="60" as="geometry" />
        </mxCell>
        <mxCell id="P-7HhU2dx_47wgBdvO1a-12" value="&lt;h2 style=&quot;font-family: &amp;quot;Google Sans&amp;quot;, Arial, sans-serif; line-height: 1.34; margin: 0px; color: rgb(31, 31, 31); background-color: rgb(255, 255, 255);&quot; data-ved=&quot;2ahUKEwiDr_zrjZCKAxX9APsDHdb_E2kQ3B0oAHoECDkQAQ&quot; data-attrid=&quot;title&quot; data-local-attribute=&quot;d3bn&quot; data-dtype=&quot;d3ifr&quot; class=&quot;qrShPb pXs6bb PZPZlf q8U8x aTI8gc hNKfZe&quot;&gt;&lt;font style=&quot;font-size: 11px;&quot;&gt;National Organization for Civil Registration API&lt;/font&gt;&lt;/h2&gt;" style="rounded=0;whiteSpace=wrap;html=1;align=center;" vertex="1" parent="1">
          <mxGeometry x="653" y="-10" width="120" height="90" as="geometry" />
        </mxCell>
        <mxCell id="P-7HhU2dx_47wgBdvO1a-14" value="&lt;b&gt;&lt;font style=&quot;font-size: 16px;&quot;&gt;AI service&lt;/font&gt;&lt;/b&gt;" style="rounded=0;whiteSpace=wrap;html=1;" vertex="1" parent="1">
          <mxGeometry x="653" y="200" width="120" height="60" as="geometry" />
        </mxCell>
        <mxCell id="P-7HhU2dx_47wgBdvO1a-15" value="&lt;b&gt;&lt;font style=&quot;font-size: 16px;&quot;&gt;Election Policies&lt;/font&gt;&lt;/b&gt;" style="rounded=0;whiteSpace=wrap;html=1;" vertex="1" parent="1">
          <mxGeometry x="653" y="100" width="120" height="60" as="geometry" />
        </mxCell>
        <mxCell id="P-7HhU2dx_47wgBdvO1a-18" value="" style="endArrow=none;html=1;rounded=0;exitX=1;exitY=0.5;exitDx=0;exitDy=0;" edge="1" parent="1" source="1GnM5Je0mjcqMMnKxtjH-9">
          <mxGeometry width="50" height="50" relative="1" as="geometry">
            <mxPoint x="410" y="380" as="sourcePoint" />
            <mxPoint x="650" y="-50" as="targetPoint" />
          </mxGeometry>
        </mxCell>
        <mxCell id="P-7HhU2dx_47wgBdvO1a-19" value="" style="endArrow=none;html=1;rounded=0;exitX=1;exitY=0.5;exitDx=0;exitDy=0;" edge="1" parent="1" source="1GnM5Je0mjcqMMnKxtjH-9">
          <mxGeometry width="50" height="50" relative="1" as="geometry">
            <mxPoint x="460" y="150" as="sourcePoint" />
            <mxPoint x="650" y="40" as="targetPoint" />
          </mxGeometry>
        </mxCell>
        <mxCell id="P-7HhU2dx_47wgBdvO1a-20" value="" style="endArrow=none;html=1;rounded=0;entryX=0;entryY=0.5;entryDx=0;entryDy=0;" edge="1" parent="1" target="P-7HhU2dx_47wgBdvO1a-15">
          <mxGeometry width="50" height="50" relative="1" as="geometry">
            <mxPoint x="450" y="30" as="sourcePoint" />
            <mxPoint x="570" y="80" as="targetPoint" />
          </mxGeometry>
        </mxCell>
        <mxCell id="P-7HhU2dx_47wgBdvO1a-21" value="" style="endArrow=none;html=1;rounded=0;exitX=1;exitY=0.5;exitDx=0;exitDy=0;" edge="1" parent="1" source="1GnM5Je0mjcqMMnKxtjH-2">
          <mxGeometry width="50" height="50" relative="1" as="geometry">
            <mxPoint x="520" y="170" as="sourcePoint" />
            <mxPoint x="650" y="230" as="targetPoint" />
          </mxGeometry>
        </mxCell>
        <mxCell id="P-7HhU2dx_47wgBdvO1a-22" value="" style="endArrow=none;html=1;rounded=0;exitX=1;exitY=0.5;exitDx=0;exitDy=0;" edge="1" parent="1" source="1GnM5Je0mjcqMMnKxtjH-2">
          <mxGeometry width="50" height="50" relative="1" as="geometry">
            <mxPoint x="510" y="160" as="sourcePoint" />
            <mxPoint x="650" y="40" as="targetPoint" />
          </mxGeometry>
        </mxCell>
        <mxCell id="P-7HhU2dx_47wgBdvO1a-23" value="&lt;b&gt;&lt;font style=&quot;font-size: 16px;&quot;&gt;Token generator&lt;/font&gt;&lt;/b&gt;" style="rounded=0;whiteSpace=wrap;html=1;" vertex="1" parent="1">
          <mxGeometry x="653" y="290" width="120" height="60" as="geometry" />
        </mxCell>
        <mxCell id="P-7HhU2dx_47wgBdvO1a-24" value="" style="endArrow=none;html=1;rounded=0;exitX=1;exitY=0.5;exitDx=0;exitDy=0;" edge="1" parent="1" source="1GnM5Je0mjcqMMnKxtjH-3">
          <mxGeometry width="50" height="50" relative="1" as="geometry">
            <mxPoint x="510" y="300" as="sourcePoint" />
            <mxPoint x="650" y="320" as="targetPoint" />
          </mxGeometry>
        </mxCell>
        <mxCell id="P-7HhU2dx_47wgBdvO1a-25" value="&lt;b&gt;&lt;font style=&quot;font-size: 16px;&quot;&gt;Blockchain&lt;/font&gt;&lt;/b&gt;" style="rounded=0;whiteSpace=wrap;html=1;" vertex="1" parent="1">
          <mxGeometry x="653" y="400" width="120" height="60" as="geometry" />
        </mxCell>
        <mxCell id="P-7HhU2dx_47wgBdvO1a-26" value="" style="endArrow=none;html=1;rounded=0;exitX=1;exitY=0.5;exitDx=0;exitDy=0;" edge="1" parent="1" source="1GnM5Je0mjcqMMnKxtjH-4">
          <mxGeometry width="50" height="50" relative="1" as="geometry">
            <mxPoint x="520" y="430" as="sourcePoint" />
            <mxPoint x="650" y="430" as="targetPoint" />
          </mxGeometry>
        </mxCell>
        <mxCell id="P-7HhU2dx_47wgBdvO1a-27" value="&lt;b&gt;&lt;font style=&quot;font-size: 16px;&quot;&gt;Blog&lt;/font&gt;&lt;/b&gt;" style="rounded=0;whiteSpace=wrap;html=1;" vertex="1" parent="1">
          <mxGeometry x="653" y="520" width="120" height="60" as="geometry" />
        </mxCell>
        <mxCell id="P-7HhU2dx_47wgBdvO1a-28" value="" style="endArrow=none;html=1;rounded=0;exitX=1;exitY=0.5;exitDx=0;exitDy=0;" edge="1" parent="1" source="1GnM5Je0mjcqMMnKxtjH-5">
          <mxGeometry width="50" height="50" relative="1" as="geometry">
            <mxPoint x="520" y="570" as="sourcePoint" />
            <mxPoint x="650" y="550" as="targetPoint" />
          </mxGeometry>
        </mxCell>
        <mxCell id="P-7HhU2dx_47wgBdvO1a-29" value="" style="endArrow=none;html=1;rounded=0;exitX=1;exitY=0.5;exitDx=0;exitDy=0;" edge="1" parent="1" source="1GnM5Je0mjcqMMnKxtjH-6">
          <mxGeometry width="50" height="50" relative="1" as="geometry">
            <mxPoint x="510" y="650" as="sourcePoint" />
            <mxPoint x="650" y="430" as="targetPoint" />
          </mxGeometry>
        </mxCell>
        <mxCell id="P-7HhU2dx_47wgBdvO1a-30" value="&lt;b&gt;Help request&lt;/b&gt;" style="ellipse;whiteSpace=wrap;html=1;" vertex="1" parent="1">
          <mxGeometry x="325" y="720" width="120" height="80" as="geometry" />
        </mxCell>
        <mxCell id="P-7HhU2dx_47wgBdvO1a-32" value="" style="endArrow=none;html=1;rounded=0;exitX=0;exitY=0.5;exitDx=0;exitDy=0;" edge="1" parent="1" source="P-7HhU2dx_47wgBdvO1a-30">
          <mxGeometry width="50" height="50" relative="1" as="geometry">
            <mxPoint x="190" y="680" as="sourcePoint" />
            <mxPoint x="70" y="380" as="targetPoint" />
          </mxGeometry>
        </mxCell>
        <mxCell id="P-7HhU2dx_47wgBdvO1a-33" value="&lt;span style=&quot;font-size: 16px;&quot;&gt;&lt;b&gt;Support service&lt;/b&gt;&lt;/span&gt;" style="rounded=0;whiteSpace=wrap;html=1;" vertex="1" parent="1">
          <mxGeometry x="653" y="730" width="120" height="60" as="geometry" />
        </mxCell>
        <mxCell id="P-7HhU2dx_47wgBdvO1a-34" value="" style="endArrow=none;html=1;rounded=0;exitX=1;exitY=0.5;exitDx=0;exitDy=0;" edge="1" parent="1" source="P-7HhU2dx_47wgBdvO1a-30">
          <mxGeometry width="50" height="50" relative="1" as="geometry">
            <mxPoint x="520" y="780" as="sourcePoint" />
            <mxPoint x="650" y="760" as="targetPoint" />
          </mxGeometry>
        </mxCell>
        <mxCell id="P-7HhU2dx_47wgBdvO1a-35" value="&lt;b&gt;Block user&lt;/b&gt;" style="ellipse;whiteSpace=wrap;html=1;" vertex="1" parent="1">
          <mxGeometry x="325" y="830" width="120" height="80" as="geometry" />
        </mxCell>
        <mxCell id="P-7HhU2dx_47wgBdvO1a-36" value="&lt;span style=&quot;font-size: 16px;&quot;&gt;&lt;b&gt;Admin&lt;/b&gt;&lt;/span&gt;" style="rounded=0;whiteSpace=wrap;html=1;" vertex="1" parent="1">
          <mxGeometry x="653" y="850" width="120" height="60" as="geometry" />
        </mxCell>
        <mxCell id="P-7HhU2dx_47wgBdvO1a-37" value="" style="endArrow=none;html=1;rounded=0;exitX=1;exitY=0.5;exitDx=0;exitDy=0;" edge="1" parent="1" source="P-7HhU2dx_47wgBdvO1a-35">
          <mxGeometry width="50" height="50" relative="1" as="geometry">
            <mxPoint x="510" y="900" as="sourcePoint" />
            <mxPoint x="650" y="880" as="targetPoint" />
          </mxGeometry>
        </mxCell>
        <mxCell id="P-7HhU2dx_47wgBdvO1a-38" value="" style="endArrow=none;html=1;rounded=0;exitX=1;exitY=0.5;exitDx=0;exitDy=0;" edge="1" parent="1" source="P-7HhU2dx_47wgBdvO1a-30">
          <mxGeometry width="50" height="50" relative="1" as="geometry">
            <mxPoint x="520" y="690" as="sourcePoint" />
            <mxPoint x="650" y="550" as="targetPoint" />
          </mxGeometry>
        </mxCell>
      </root>
    </mxGraphModel>
  </diagram>
</mxfile>
